<?xml version="1.0" encoding="utf-8"?>
<!-- Generator: Adobe Illustrator 27.5.0, SVG Export Plug-In . SVG Version: 6.00 Build 0)  -->
<svg version="1.1" xmlns="http://www.w3.org/2000/svg" xmlns:xlink="http://www.w3.org/1999/xlink" x="0px" y="0px"
	 viewBox="0 0 500 500" style="enable-background:new 0 0 500 500;" xml:space="preserve">
<g id="BACKGROUND">
</g>
<g id="OBJECTS">
	
		<ellipse style="opacity:0.25;fill-rule:evenodd;clip-rule:evenodd;fill:#007AAD;" cx="258.122" cy="453.377" rx="188.458" ry="17.482"/>
	<g>
		<g>
			<path style="fill:#FFCB9C;" d="M338.354,180.926c-14.888,17.451-34.496-8.935-34.496-8.935s7.838-5.755,9.403-8.528
				c0.074-0.123,0.135-0.283,0.173-0.456c1.134-3.537-1.393-15.553-1.393-15.553l22.307-4.351c0,0,1.208,7.37,2.637,8.43
				c0.012,0.012,0.025,0.012,0.049,0.012c1.294,0.542,6.187-13.236,6.187-13.236S353.23,163.487,338.354,180.926z"/>
			<path style="fill:#FF9536;" d="M337.035,151.544c-3.451,5.731-11.104,14.765-23.601,11.462
				c1.134-3.537-1.393-15.553-1.393-15.553l22.307-4.351c0,0,1.208,7.37,2.637,8.43
				C336.999,151.544,337.011,151.544,337.035,151.544z"/>
		</g>
		<g>
			<g>
				<g>
					<path style="fill:#003E54;" d="M415.015,457.493l-49.5-0.161c0,0-0.02-1.614,0.244-3.925c0.415-3.63,1.561-9.001,4.697-12.418
						c0,0,21.141-2.751,32.766,4.423c5.151,3.184,8.044,5.914,9.679,7.953C414.974,455.976,415.015,457.493,415.015,457.493z"/>
					<path style="fill:#FFDFC2;" d="M415.015,457.493l-49.5-0.161c0,0-0.02-1.614,0.244-3.925l47.137-0.031
						C414.974,455.976,415.015,457.493,415.015,457.493z"/>
				</g>
			</g>
			<g>
				<g>
					<path style="fill:#003E54;" d="M284.17,457.341l49.492,0.697c0,0,0.054-1.616-0.18-3.933c-0.353-3.64-1.404-9.017-4.48-12.501
						c0,0-21.089-3.128-32.841,3.856c-5.193,3.1-8.151,5.77-9.807,7.79C284.239,455.823,284.17,457.341,284.17,457.341z"/>
					<path style="fill:#FFDFC2;" d="M284.17,457.341l49.492,0.697c0,0,0.054-1.616-0.18-3.933l-47.128-0.855
						C284.239,455.823,284.17,457.341,284.17,457.341z"/>
				</g>
			</g>
			<g>
				<polygon style="fill:#A15414;" points="390.133,440.906 367.816,443.635 355.103,375.668 340.03,304.532 339.907,303.928 
					331.168,444.474 311.033,441.301 306.434,283.741 306.717,262.148 368.487,256.085 370.508,270.036 				"/>
				<path style="opacity:0.2;fill:#634200;" d="M370.508,270.036c-11.289,6.815-35.063,18.031-64.087,13.705l0.296-21.592
					l61.77-6.064L370.508,270.036z"/>
				<path style="opacity:0.2;fill:#634200;" d="M355.103,375.668l-15.073-71.124c0.012-0.456,0.025-0.9,0.037-1.368
					c3.673-2.81,7.333-5.645,11.659-8.701C353.242,321.515,354.376,348.579,355.103,375.668z"/>
			</g>
		</g>
		<g>
			<path style="fill:#FFCB9C;" d="M377.99,40.76c3.857-2.157,12.99-8.085,15.566-10.168c0.986-0.801,3.821-3.586-0.394-3.303
				c-1.639,0.111-7.789,2.724-9.206,3.549c2.502-1.763,5.842-4.622,8.331-6.384c0.592-0.419,1.257-0.986,1.183-1.713
				c-0.111-1.023-1.504-1.245-2.527-1.122c-3.217,0.382-6.852,2.428-9.687,4.018c1.947-1.713,5.632-5.866,7.173-7.949
				c0.641-0.863,1.245-2.046,0.653-2.946c-0.801-1.208-2.674-0.481-3.87,0.345c-3.044,2.12-8.011,6.446-11.055,8.565
				c2.342-4.166,7.284-12.029,5.78-12.83c-3.032-1.614-11.942,11.301-15.134,16.453c-1.355-2.206-2.724-4.4-4.079-6.606
				c-0.579-0.937-1.541-2.009-2.551-1.602c-1.122,0.444-0.912,2.083-0.505,3.217c2.132,5.866,4.252,11.733,5.731,18.142
				C368.302,39.984,373.294,40.366,377.99,40.76z"/>
		</g>
		<path style="fill:#FFCB9C;" d="M247.942,266.124c-4.129,1.565-13.076,5.139-15.935,6.828c-1.097,0.653-4.301,2.995-0.086,3.328
			c1.639,0.135,7.148-0.592,8.664-1.208c-2.724,1.38-5.817,2.761-8.541,4.129c-0.653,0.333-1.393,0.789-1.417,1.516
			c-0.037,1.035,1.306,1.454,2.342,1.479c3.241,0.099,6.495-0.444,9.527-1.602c-2.181,1.417-4.203,3.069-6.039,4.905
			c-0.752,0.764-1.528,1.849-1.072,2.822c0.616,1.319,2.576,0.875,3.882,0.222c3.328-1.652,6.643-3.291,9.97-4.942
			c-2.933,3.784-6.15,7.333-4.782,8.344c2.761,2.033,10.648-5.928,14.555-10.55c1.023,2.379,2.046,4.757,3.069,7.136
			c0.431,1.011,1.232,2.206,2.292,1.96c1.183-0.283,1.208-1.935,0.961-3.118c-1.245-6.113-2.49-12.226-3.007-18.782
			C257.42,268.306,252.539,267.209,247.942,266.124z"/>
		<g>
			<g>
				<path style="fill:#007AAD;" d="M371.864,259.72c0.801,2.896,1.442,4.19,3.13,6.877c-21.284,13.52-47.695,14.074-72.11,10.858
					c-0.049-3.155,0.21-5.065,0.148-8.233c-1.849-0.961-4.289-3.512-3.944-6.076c0.616-4.548,1.504-9.034,1.664-18.598
					c0.062-4.141,0-19.231-0.283-25.689c-15.972,13.446-25.413,24.969-34.718,49.495c-0.727,1.886-1.442,3.845-2.157,5.879
					c-5.719-2.403-11.733-5.139-17.747-7.851c0.209-1.516,0.419-3.032,0.678-4.535c6.347-38.095,29.246-70.693,60.131-93.678
					c1.356-1.011,2.711-1.997,4.104-2.97c3.919,6.951,14.641,14.173,21.987,10.5c7.296-3.66,8.122-15.541,5.743-27.237
					c0.85-1.947,1.676-3.944,2.49-5.99c12.546-32.007,18.499-66.86,17.821-99.754c-0.049-2.502-0.136-4.979-0.271-7.469
					c8.282,1.306,14.383,3.044,22.973,7.715c0.148,3.044,0.283,6.051,0.382,9.009c1.516,46.882-4.609,83.029-15.948,121.617
					c4.079,24.464,6.803,52.297,9.132,76.737c0.049,0.493,0.086,0.998,0.136,1.491C375.746,257.416,374.551,258.464,371.864,259.72z
					"/>
				<path style="fill:#C5F5E9;" d="M335.593,179.003c-12.558,6.803-24.599-4.683-28.925-10.808c1.356-1.011,2.711-1.997,4.104-2.97
					c3.919,6.951,14.642,14.173,21.987,10.5c7.296-3.66,8.122-15.541,5.743-27.237c0.85-1.947,1.676-3.944,2.489-5.99
					C343.198,151.199,348.682,171.917,335.593,179.003z"/>
				<path style="fill:#C5F5E9;" d="M265.763,268.355c-0.727,1.886-1.442,3.845-2.157,5.879c-5.718-2.403-11.733-5.139-17.747-7.851
					c0.21-1.516,0.419-3.032,0.678-4.535L265.763,268.355z"/>
				<path style="fill:#C5F5E9;" d="M381.896,52.013L358.8,42.757c-0.049-2.502-0.136-4.979-0.271-7.469
					c8.282,1.306,14.383,3.044,22.973,7.715C381.674,46.048,381.798,49.055,381.896,52.013z"/>
			</g>
			<path style="opacity:0.2;fill:#007AAD;" d="M371.864,259.72c0.801,2.896,1.442,4.19,3.13,6.877
				c-21.284,13.52-47.695,14.074-72.11,10.858c-0.049-3.155,0.21-5.065,0.148-8.233c-1.849-0.961-4.289-3.512-3.944-6.076
				c0.616-4.548,1.504-9.034,1.664-18.598c22.233,12.78,50.358,14.851,74.328,5.805c0.049,0.493,0.086,0.998,0.135,1.491
				C375.746,257.416,374.551,258.464,371.864,259.72z"/>
			<g>
				<path style="opacity:0.2;fill:#007AAD;" d="M301.258,216.112c1.676-9.083,1.664-18.486-0.062-27.57
					c1.984,4.696,4.005,9.49,4.326,14.58C305.855,208.2,304.179,213.709,301.258,216.112z"/>
				<path style="opacity:0.2;fill:#007AAD;" d="M306.027,214.3c3.081-7.247,5.176-14.913,6.199-22.714
					C314.494,199.881,311.598,209.358,306.027,214.3z"/>
			</g>
			<g>
				<path style="opacity:0.2;fill:#007AAD;" d="M363.693,171.017c-1.96-9.675-5.534-19.029-10.55-27.533
					C359.983,150.793,363.952,160.751,363.693,171.017z"/>
				<path style="opacity:0.2;fill:#007AAD;" d="M365.147,160.344c0.049-11.745-0.752-23.49-2.391-35.124
					C367.748,136.065,368.968,148.599,365.147,160.344z"/>
			</g>
			<g>
				<path style="fill:#076E94;" d="M308.591,277.307c-0.518-2.822-0.493-5.743,0.099-8.553
					C309.417,271.515,309.453,274.448,308.591,277.307z"/>
				<path style="fill:#076E94;" d="M323.454,277.887c-0.567-2.724-0.703-5.546-0.394-8.307
					C324.181,272.489,324.514,275.705,323.454,277.887z"/>
				<path style="fill:#076E94;" d="M341.645,276.42c-0.838-2.539-1.171-5.25-0.986-7.925
					C341.62,271.515,342.027,274.719,341.645,276.42z"/>
				<path style="fill:#076E94;" d="M355.769,273.709c-0.801-2.748-1.319-5.571-1.565-8.418
					C355.448,267.855,356.027,270.738,355.769,273.709z"/>
				<path style="fill:#076E94;" d="M366.947,269.753c-0.961-2.526-1.59-5.189-1.873-7.875
					C366.294,264.108,366.971,266.634,366.947,269.753z"/>
			</g>
		</g>
		<g>
			<path style="fill:#FFCB9C;" d="M337.556,124.987c3.13-2.269,7.132-2.088,8.937,0.403c1.805,2.491,0.731,6.35-2.399,8.618
				c-3.13,2.269-7.132,2.088-8.937-0.403C333.351,131.114,334.425,127.255,337.556,124.987z"/>
			<g>
				<path style="fill:#FFCB9C;" d="M293.272,135.732c-4.264-15.59,2.489-31.033,15.085-34.484
					c12.608-3.451,26.276,6.396,30.552,21.999c4.264,15.59,0.789,28.519-11.905,33.535
					C314.852,161.576,297.548,151.335,293.272,135.732z"/>
				<path style="fill:#FF9536;" d="M298.386,139.528c1.233-5.299,1.405-10.833,0.74-16.638c5.829,1.775,12.596,0.037,16.712-4.277
					c4.831,2.218,10.735,1.935,15.825-0.702c3.66,2.81,6.409,6.791,8.208,10.87c-1.085-3.044-1.479-6.298-2.243-9.44
					c-0.752-3.143-1.96-6.322-4.018-8.393c-13.236-0.739-26.596,0.641-39.931,4.129C292.47,122.508,293.247,130.26,298.386,139.528z
					"/>
			</g>
			<g>
				<path style="fill:#003E54;" d="M340.203,130.766c-1.417-7.087-4.289-11.289-7.555-16.071c-5.521,3.13-11.881,3.278-17.119,0.838
					c-3.512,4.079-16.28,5.829-19.571,3.673c2.49,10.143,4.609,16.983,2.28,25.918c-5.09-4.991-10.291-8.775-11.918-17.907
					c-0.53-2.958-0.357-7.863,3.648-8.8c-0.345-2.391-0.468-4.868-0.247-7.271c0.259-2.65,0.924-5.238,2.194-7.579
					c2.403-4.474,7.271-7.851,12.94-7.197c2.28-1.947,4.733-3.759,7.53-4.856c2.798-1.097,5.977-1.43,8.8-0.431
					c2.822,0.998,5.213,3.475,5.472,6.335c3.204-0.308,6.52,0.973,8.701,3.34c0.776,0.851,1.43,1.849,1.836,2.958
					c0.764,1.96,0.838,4.252-0.246,6.68C340.264,116.186,340.807,121.165,340.203,130.766z"/>
			</g>
			<path style="fill:#FFCB9C;" d="M296.5,139.393c3.866,0,7,2.494,7,5.571c0,3.077-3.134,5.571-7,5.571c-3.866,0-7-2.494-7-5.571
				C289.5,141.887,292.634,139.393,296.5,139.393z"/>
		</g>
	</g>
	<g>
		<g>
			<g>
				<path style="fill:#007AAD;" d="M169.948,455.879c-1.233,1.452-41.085,2.107-42.075,0.372c-0.861-1.49,2.004-4.137,5.962-6.797
					c4.921-3.302,14.605-6.642,17.907-7.812c3.276-1.169,11.101-3.238,11.101-3.238s1.4,2.197,2.981,5.062
					C168.355,448.016,171.349,454.222,169.948,455.879z"/>
				<path style="fill:#FFDFC2;" d="M165.824,443.468c-6.257,3.739-24.589,11.769-31.989,5.987
					c4.921-3.302,14.605-6.642,17.907-7.812c3.276-1.169,11.101-3.238,11.101-3.238S164.244,440.603,165.824,443.468z"/>
			</g>
			<g>
				<path style="fill:#007AAD;" d="M248.965,407.236c0.617,1.799-20.76,36.781-22.751,36.743c-1.722-0.026-2.518-3.842-2.775-8.608
					c-0.308-5.923,3.286-16.379,3.967-19.809c0.681-3.418,2.916-11.191,2.916-11.191s2.608-0.077,5.872,0.039
					C241.397,404.576,248.258,405.18,248.965,407.236z"/>
				<path style="fill:#FFDFC2;" d="M236.193,404.409c0,7.285-4.006,27.582-12.755,30.961c-0.308-5.923,3.286-16.379,3.967-19.809
					c0.681-3.418,2.916-11.191,2.916-11.191S232.93,404.306,236.193,404.409z"/>
			</g>
			<g>
				<path style="fill:#00A9E6;" d="M235.782,404.422l-9.289,15.238c0,0-44.082-56.657-51.431-65.574
					c-4.368-5.293-10.831-41.256-15.341-69.483c-0.051-0.398-0.116-0.784-0.18-1.169l0.051,1.156l5.024,156.719l-16.574,1.747
					c0,0-19.915-117.994-22.947-158.197c-0.347-4.574-0.553-8.878-0.643-12.912c-0.54-23.281,2.698-37.735,4.407-43.684
					c0.617-2.094,1.028-3.135,1.028-3.135l2.3,1.657l25.838,18.643l0.141,3.636l32.917-6.899c2.711,5.692,4.253,16.548,5.126,29.075
					c0,0,0,0.013,0.013,0.013c2.004,28.407,2.068,65.359,3.045,69.907C200.668,347.726,235.782,404.422,235.782,404.422z"/>
				<path style="fill:#007AAD;" d="M196.21,271.241c-1.465-2.03-3.225-3.854-5.216-5.383c-0.54,4.42-1.272,9.032-2.004,13.645
					c-9.289,4.009-19.375,5.653-29.268,5.101c-0.051-0.398-0.116-0.784-0.18-1.169l0.051,1.156
					c-12.694-0.72-25.092-5.062-35.14-12.643c-0.54-23.281,2.698-37.735,4.407-43.684c1.079-0.552,2.197-1.041,3.328-1.477
					l25.838,18.643l0.141,3.636l32.917-6.899C193.794,247.857,195.336,258.714,196.21,271.241z"/>
			</g>
		</g>
		<path style="fill:#FFC01B;" d="M198.176,119.093c-2.184,8.159-7.439,15.791-6.681,24.206c0.424,4.664,2.685,8.955,3.842,13.491
			c2.197,8.57,0.18,18.116-5.281,25.067c-5.473,6.938-14.261,11.152-23.088,11.037l-13.915-1.452
			c-5.743,1.259-12.026-0.283-16.523-4.06c-4.484-3.79-7.092-9.726-6.822-15.598c0.206-4.767,2.171-9.623,0.707-14.159
			c-1.349-4.189-5.28-6.964-7.529-10.728c-3.418-5.704-2.339-13.709,2.454-18.309c2.544-2.428,5.962-3.983,7.876-6.938
			c2.942-4.523,1.349-10.433,0.758-15.79c-0.154-1.388-0.257-2.801-0.308-4.201c-0.283-6.771,0.745-13.542,4.651-19.054
			c11.551-16.304,39.136-14.621,44.314-1.413c4.021,0.694,7.401,3.199,10.034,6.771C198.587,95.966,200.797,109.277,198.176,119.093
			z"/>
		<g>
			<g>
				<path style="fill:#FFDFC2;" d="M259.205,160.335c-9.084,22.818-24.198,56.416-34.515,57.341
					c-4.42,0.398-15.066-12.655-24.959-21.996c-4.356-4.111-8.775-8.505-12.81-12.578c-1.195-7.593-0.334-16.895,0.591-23.307
					c0.655-4.587,1.349-7.696,1.349-7.696s5.576,1.709,10.407,5.191c5.884,4.253,14.988,25.683,26.025,33.649
					c10.394-13.388,15.706-24.321,24.07-38.493C253.076,155.89,254.515,157.098,259.205,160.335z"/>
				<path style="fill:#FFCB9C;" d="M199.73,195.681c-4.356-4.111-8.775-8.505-12.81-12.578c-1.195-7.593-0.334-16.895,0.591-23.307
					l6.617-5.242c0,0,0.578,9.752,2.428,28.202C197.096,188.113,198.201,192.263,199.73,195.681z"/>
			</g>
			<g>
				<path style="fill:#FFDFC2;" d="M249.055,157.83c-2.21-5.961-4.42-11.923-6.63-17.897c-0.463-1.259-0.694-3.071,0.565-3.546
					c1.105-0.411,2.12,0.758,2.724,1.773c1.31,2.171,2.608,4.343,4.484,6.424c1.066-5.036,2.12-10.086,3.186-15.122
					c0.27-1.272,1.221-2.917,2.39-2.351c0.668,0.321,0.809,1.195,0.861,1.927c0.283,4.394-0.051,8.84-0.976,13.144
					c1.876-4.047,3.764-8.094,5.64-12.141c0.488-1.054,1.388-2.313,2.505-1.979c1.041,0.308,1.195,1.696,1.118,2.775
					c-0.296,4.317-1.105,8.608-2.377,12.745c2.672-5.178,6.36-13.208,8.274-10.882c1.94,2.351-2.454,10.253-5.139,14.75
					c3.032-2.39,6.103-8.184,7.915-7.105c3.328,1.979-8.107,16.883-15.315,22.112C254.952,160.49,252.318,158.858,249.055,157.83z"
					/>
			</g>
		</g>
		<g>
			<g>
				<path style="fill:#FFDFC2;" d="M144.509,143.877l-3.148,9.019l-6.231,17.885c0,0-10.702-1.67-22.613-4.651
					c-13.015-3.251-37.695-8.081-41.229-14.03c-5.962-10.073,23.755-65.86,23.755-65.86l10.728,6.565
					c0,0-18.063,42.142-16.47,45.238C90.676,140.716,144.509,143.877,144.509,143.877z"/>
				<path style="fill:#FFCB9C;" d="M141.361,152.896l-6.231,17.885c0,0-10.702-1.67-22.613-4.651
					c16.574-6.424,22.973-20.917,22.973-20.917L141.361,152.896z"/>
			</g>
			<g>
				<path style="fill:#FFDFC2;" d="M102.637,94.784c6.27-1.041,12.553-2.081,18.823-3.122c1.323-0.218,3.019-0.925,2.801-2.249
					c-0.193-1.169-1.709-1.465-2.891-1.49c-2.531-0.051-5.075-0.116-7.799-0.707c3.854-3.418,7.696-6.848,11.55-10.266
					c0.977-0.861,1.927-2.506,0.861-3.251c-0.617-0.424-1.439-0.116-2.107,0.205c-3.957,1.94-7.645,4.42-10.921,7.362
					c2.582-3.636,5.152-7.285,7.735-10.921c0.668-0.951,1.323-2.351,0.475-3.161c-0.784-0.745-2.056-0.193-2.955,0.411
					c-3.597,2.403-6.925,5.229-9.88,8.39c3.174-4.882,8.313-12.064,5.345-12.578c-3.007-0.514-7.683,7.221-10.266,11.782
					c0.578-3.816,4.073-9.354,2.248-10.394c-3.366-1.902-10.626,15.418-11.602,24.27C97.407,90.981,100.131,92.471,102.637,94.784z"
					/>
			</g>
		</g>
		<g>
			<g>
				<path style="fill:#FF719D;" d="M199.448,268.967c-4.124-7.169-6.848-13.979-9.572-20.788c-2.441,8.351-3.52,15.341-3.726,22.356
					c-10.792,7.76-23.448,10.394-35.525,8.673c-12.077-1.722-24.129-6.501-32.326-15.546c1.272-9.675,3.559-20.249,5.46-29.808
					h0.013c1.773-8.891,3.225-16.908,3.225-22.51c0-11.345-3.366-44.326,6.373-69.136c23.589,0.141,43.8,5.036,63.547,10.613
					c-1.812,17.769-6.655,49.684-7.118,56.622c-0.013,0.116-0.013,0.244-0.013,0.373c-0.206,7.452,6.977,28.086,10.831,43.594
					C201.915,258.676,203.019,264.881,199.448,268.967z"/>
				<path style="opacity:0.2;fill:#007AAD;" d="M199.448,268.967c-4.124-7.169-6.848-13.979-9.572-20.788
					c-2.441,8.351-3.52,15.341-3.726,22.356c-10.792,7.76-23.448,10.394-35.525,8.673c-12.077-1.722-24.129-6.501-32.326-15.546
					c1.272-9.675,3.559-20.249,5.46-29.808h0.013c5.293,3.212,11.383,5.191,17.551,5.666c12.347,0.938,24.81-3.764,34.24-11.769
					c5.859-4.972,10.6-11.139,14.223-17.936c-0.206,7.452,6.977,28.086,10.831,43.594
					C201.915,258.676,203.019,264.881,199.448,268.967z"/>
			</g>
			<g>
				<g>
					<path style="fill:#FFCB9C;" d="M133.919,115.578c1.077-2.718,4.801-3.792,8.317-2.398c3.516,1.393,5.494,4.726,4.417,7.444
						c-1.077,2.718-4.8,3.792-8.317,2.398C134.819,121.629,132.842,118.296,133.919,115.578z"/>
					<g>
						<path style="fill:#FFDFC2;" d="M178.968,149.055c-2.698,8.326-18.81,15.097-23.319,14.043
							c-5.692-1.323-9.533-17.307-8.056-20.082c1.567,0.013,3.135-0.385,4.535-1.105c1.233-0.642,2.326-1.529,3.186-2.608
							c1.85-2.313,2.557-5.486,2.236-8.57c5.602-1.452,11.217-2.891,18.54-4.651c-1.156,4.009-2.313,8.094-2.197,12.27
							c0,0.129,0.013,0.257,0.013,0.385C174.098,142.785,175.678,146.922,178.968,149.055z"/>
						<path style="fill:#FFCB9C;" d="M173.893,138.352c0,0.129,0.013,0.257,0.013,0.385c-5.152,3.366-13.311,6.861-21.778,3.173
							c1.233-0.642,2.326-1.529,3.186-2.608c1.85-2.313,2.557-5.486,2.236-8.57c5.602-1.452,11.217-2.891,18.54-4.651
							C174.933,130.091,173.777,134.177,173.893,138.352z"/>
					</g>
					<g>
						<path style="fill:#FFDFC2;" d="M140.77,109.058c0.578-16.304,11.718-30.424,24.887-29.962
							c13.169,0.463,22.343,16.651,21.187,32.93c-1.118,15.79-11.383,26.48-24.553,26.017
							C149.121,137.581,140.192,125.363,140.77,109.058z"/>
						<path style="fill:#FFCB9C;" d="M186.625,111.666c-7.324-2.814-12.54-10.407-12.064-18.617
							c-3.032,3.662-7.555,5.82-12.167,6.964c-4.612,1.143-9.392,1.362-14.133,1.799c-1.914,0.18-3.867,0.398-5.64,1.144
							c-1.773,0.745-3.379,2.12-3.983,3.944c0.167-6.244,3.572-12.142,8.364-16.15c4.792-4.009,10.831-6.308,16.972-7.465
							c5.949-1.131,12.707-1.053,17.294,2.891c2.647,2.274,4.214,5.589,4.998,8.994C187.036,98.561,187.101,102.082,186.625,111.666
							z"/>
					</g>
					<path style="fill:#FFC01B;" d="M179.649,82.283c-9.392-6.617-23.101-6.309-32.185,0.732
						c-7.118,5.512-10.934,14.801-10.317,23.743c1.092,1.221,2.454,2.801,1.221,1.645c-0.976-0.912,0.283,0.283,0.797,0.784
						c0.732-3.764,2.39-7.272,5.692-8.955c2.441-1.246,5.319-1.233,8.056-1.452c8.981-0.745,17.692-4.484,24.424-10.497
						c-1.221,14.904,4.728,22.87,12.54,26.84C193.062,103.508,189.041,88.899,179.649,82.283z"/>
					<path style="fill:#FFDFC2;" d="M185.46,111.143c3.363-1.731,7.173-1.027,8.512,1.572c1.338,2.599-0.303,6.11-3.666,7.841
						c-3.363,1.731-7.173,1.027-8.511-1.572C180.457,116.385,182.098,112.874,185.46,111.143z"/>
				</g>
			</g>
			<g>
				<path style="fill:#FFF8F7;" d="M183.169,148.759c-2.274-2.801-4.6-4.484-8.146-5.152c-2.891,7.927-9.366,14.75-16.998,19.594
					c5.345-1.619,14.557,2.313,16.42,7.568C177.182,167.697,183.169,157.869,183.169,148.759z"/>
				<path style="fill:#FFF8F7;" d="M154.505,162.802c-5.242-5.512-4.895-13.169-3.251-20.583c-2.698-2.364-7.863-1.837-10.51,0
					c-3.212,6.398-4.715,14.904-4.626,22.06C142.363,159.937,148.171,159.243,154.505,162.802z"/>
			</g>
			<g>
				<path style="fill:#FFF8F7;" d="M154.582,166.772c1.107,0,2.004,0.897,2.004,2.004c0,1.107-0.897,2.004-2.004,2.004
					c-1.107,0-2.004-0.897-2.004-2.004C152.577,167.67,153.475,166.772,154.582,166.772z"/>
				<path style="fill:#FFF8F7;" d="M153.541,179.595c1.107,0,2.004,0.897,2.004,2.004c0,1.107-0.897,2.004-2.004,2.004
					c-1.107,0-2.004-0.897-2.004-2.004C151.537,180.492,152.434,179.595,153.541,179.595z"/>
			</g>
		</g>
	</g>
</g>
</svg>
